<svg width="24" height="24" viewBox="0 0 24 24" fill="none" xmlns="http://www.w3.org/2000/svg">
<path d="M10.3528 8.57031L8.27776 11.0405L14.1651 15.981M14.1651 15.981L10.5915 20.2545C10.2679 20.6414 9.8712 20.9607 9.42405 21.1942C8.97691 21.4276 8.48813 21.5706 7.98566 21.615C7.4832 21.6593 6.97693 21.6042 6.4958 21.4527C6.01467 21.3012 5.56814 21.0563 5.18174 20.7321V20.7321C4.79515 20.4071 4.47635 20.0093 4.24354 19.5611C4.01073 19.113 3.86848 18.6234 3.82489 18.1203C3.78131 17.6171 3.83726 17.1104 3.98953 16.6289C4.14181 16.1474 4.38744 15.7006 4.7124 15.314L8.286 11.0405L14.1651 15.981Z" stroke="#5E83F2" stroke-width="2" stroke-linecap="round" stroke-linejoin="round"/>
<g style="mix-blend-mode:multiply">
<path d="M10.353 8.59526L16.2403 13.5357L14.1653 16.0059M19.3034 3.90183C18.9168 3.57632 18.4697 3.3304 17.9878 3.17818C17.5059 3.02596 16.9986 2.97044 16.4952 3.01482C15.9917 3.0592 15.502 3.20259 15.0542 3.43677C14.6063 3.67094 14.2091 3.99129 13.8854 4.37941L10.3447 8.59526L16.2321 13.5357L19.7645 9.31986C20.4218 8.5402 20.7424 7.53141 20.6559 6.51536C20.5695 5.49931 20.083 4.55921 19.3034 3.90183Z" stroke="#F21D81" stroke-width="2" stroke-linecap="round" stroke-linejoin="round"/>
</g>
</svg>
