<svg width="16" height="18" viewBox="0 0 16 18" fill="none" xmlns="http://www.w3.org/2000/svg">
<path d="M5.81152 15.0635C5.81152 15.3506 5.86808 15.6349 5.97796 15.9002C6.08784 16.1655 6.24889 16.4065 6.45192 16.6095C6.65496 16.8126 6.89599 16.9736 7.16127 17.0835C7.42654 17.1934 7.71086 17.2499 7.99799 17.2499C8.28512 17.2499 8.56944 17.1934 8.83472 17.0835C9.09999 16.9736 9.34102 16.8126 9.54406 16.6095C9.74709 16.4065 9.90814 16.1655 10.018 15.9002C10.1279 15.6349 10.1845 15.3506 10.1845 15.0635" stroke="#5E83F2" stroke-width="1.32113" stroke-linecap="round" stroke-linejoin="round"/>
<g style="mix-blend-mode:multiply">
<path d="M7.99849 3.19997C7.7552 3.19997 7.5174 3.12774 7.3152 2.99244C7.11301 2.85714 6.95554 2.66486 6.86275 2.43997C6.76995 2.21508 6.74601 1.9677 6.79395 1.72919C6.8419 1.49067 6.95957 1.27176 7.13206 1.1002C7.30456 0.928637 7.5241 0.812144 7.76286 0.765485C8.00163 0.718826 8.24888 0.744101 8.47327 0.838108C8.69765 0.932116 8.88908 1.09062 9.02329 1.29354C9.1575 1.49646 9.22845 1.73465 9.22714 1.97793C9.22539 2.30264 9.09517 2.61346 8.86495 2.84245C8.63472 3.07144 8.3232 3.19998 7.99849 3.19997ZM14.8287 15.0175C14.3404 14.5383 13.9523 13.9669 13.687 13.3364C13.4216 12.7058 13.2843 12.0288 13.283 11.3447V8.49109C13.283 7.08955 12.7262 5.74542 11.7352 4.75438C10.7442 3.76334 9.40003 3.20658 7.99849 3.20658C6.59695 3.20658 5.25281 3.76334 4.26177 4.75438C3.27073 5.74542 2.71397 7.08955 2.71397 8.49109V11.3447C2.71405 12.0377 2.5756 12.7236 2.30675 13.3623C2.03789 14.001 1.64407 14.5794 1.14844 15.0637L14.8287 15.0175Z" stroke="#F21D81" stroke-width="1.32113" stroke-linecap="round" stroke-linejoin="round"/>
</g>
</svg>
