<svg width="24" height="21" viewBox="0 0 24 24" fill="none" xmlns="http://www.w3.org/2000/svg">
<path d="M19.0017 19.0001L14.4368 14.4351M14.4368 14.4351C13.4448 15.4276 12.1389 16.0447 10.7424 16.1811C9.34583 16.3175 7.94526 15.9646 6.78006 15.1827C5.61485 14.4009 4.75734 13.2387 4.35408 11.8947C3.95082 10.5507 4.02684 9.10832 4.56916 7.81415C5.11148 6.51999 6.08642 5.45434 7.32736 4.79933C8.5683 4.14433 9.9982 3.94063 11.3727 4.22304C12.7472 4.50546 13.9809 5.25647 14.863 6.34771C15.7452 7.43894 16.221 8.80267 16.209 10.2058C16.1913 11.7925 15.5555 13.3098 14.4368 14.4351V14.4351Z" stroke="#F21D81" stroke-width="2.68528" stroke-linecap="round" stroke-linejoin="round"/>
</svg>
