<svg width="24" height="24" viewBox="0 0 24 24" fill="none" xmlns="http://www.w3.org/2000/svg">
<path d="M12 7C8.56091 7 5.44216 8.7536 3.14084 11.6019C2.95305 11.8353 2.95305 12.1613 3.14084 12.3946C5.44216 15.2464 8.56091 17 12 17C15.4391 17 18.5578 15.2464 20.8592 12.3981C21.0469 12.1647 21.0469 11.8387 20.8592 11.6054C18.5578 8.7536 15.4391 7 12 7ZM12.2467 15.5209C9.96379 15.6548 8.07855 13.9012 8.22215 11.7701C8.33998 10.013 9.86806 8.58888 11.7533 8.47907C14.0362 8.34523 15.9214 10.0988 15.7778 12.2299C15.6563 13.9835 14.1283 15.4077 12.2467 15.5209ZM12.1326 13.8943C10.9027 13.9664 9.88647 13.0226 9.96747 11.8765C10.0301 10.9293 10.8549 10.164 11.8711 10.1023C13.101 10.0302 14.1172 10.9739 14.0362 12.1201C13.9699 13.0707 13.1451 13.836 12.1326 13.8943Z" fill="#1C31A6"/>
</svg>
