<svg width="204" height="26" viewBox="0 0 204 26" fill="none" xmlns="http://www.w3.org/2000/svg">
<path d="M203.995 14.128C203.982 13.9674 203.936 13.811 203.862 13.6679C203.788 13.5247 203.687 13.3976 203.563 13.2939C203.44 13.1901 203.297 13.1118 203.143 13.0634C202.99 13.0149 202.828 12.9974 202.667 13.0117C202.343 13.0404 202.043 13.1967 201.834 13.4463L199.437 16.3043L197.038 13.4463C196.934 13.3226 196.807 13.2206 196.664 13.146C196.521 13.0714 196.365 13.0258 196.204 13.0117C196.044 12.9976 195.882 13.0153 195.728 13.0638C195.574 13.1123 195.431 13.1907 195.308 13.2945C195.06 13.5044 194.904 13.804 194.876 14.128C194.847 14.452 194.948 14.7741 195.156 15.0241L197.836 18.2126L195.156 21.404C194.947 21.6535 194.846 21.9757 194.875 22.2998C194.904 22.6239 195.06 22.9233 195.31 23.1321C195.559 23.341 195.881 23.4422 196.205 23.4134C196.529 23.3846 196.829 23.2283 197.038 22.9788L203.715 15.0241C203.819 14.9006 203.897 14.7579 203.945 14.6041C203.993 14.4503 204.01 14.2885 203.995 14.128Z" fill="#020B40"/>
<g style="mix-blend-mode:multiply">
<path d="M203.432 23.1287C203.685 22.9158 203.843 22.6113 203.871 22.2819C203.899 21.9526 203.796 21.6254 203.583 21.3723L202.613 20.2589C202.401 20.0058 202.097 19.8473 201.768 19.8183C201.439 19.7893 201.113 19.8921 200.859 20.1041C200.606 20.3161 200.448 20.6199 200.419 20.9487C200.39 21.2776 200.493 21.6045 200.705 21.8575L201.678 22.9739C201.794 23.1135 201.94 23.2257 202.105 23.3023C202.27 23.379 202.449 23.4184 202.631 23.4175C202.923 23.4179 203.207 23.3157 203.432 23.1287Z" fill="#020B40"/>
</g>
<path d="M82.3588 13.8164C81.8478 13.2037 81.1947 12.7253 80.4564 12.4231C80.8422 12.1793 81.1885 11.8781 81.4835 11.53C82.1678 10.645 82.515 9.5454 82.463 8.42789C82.4815 7.35952 82.2077 6.30639 81.6711 5.38237C81.1417 4.50096 80.3821 3.78049 79.474 3.29844C78.4821 2.77911 77.3753 2.51803 76.2558 2.53929H70.1231C69.9386 2.53544 69.7553 2.57028 69.5851 2.64155C69.4149 2.71282 69.2614 2.81895 69.1347 2.9531C69.0032 3.08618 68.8998 3.2444 68.8308 3.4183C68.7617 3.5922 68.7284 3.77824 68.7328 3.96529V21.8961C68.7285 22.0945 68.764 22.2919 68.8371 22.4764C68.9102 22.661 69.0195 22.8291 69.1585 22.9708C69.2935 23.1131 69.4567 23.2258 69.6376 23.3016C69.8186 23.3775 70.0133 23.4149 70.2094 23.4114H76.7768C77.9729 23.4326 79.1552 23.1532 80.2153 22.5987C81.1855 22.0825 81.9965 21.3116 82.5612 20.3688C83.1349 19.3818 83.4273 18.2564 83.4067 17.1149C83.4067 15.7663 83.0584 14.6618 82.3588 13.8164ZM79.3341 10.0563C79.0263 10.4917 78.6008 10.8304 78.1075 11.0328C77.5199 11.2671 76.8913 11.3815 76.2588 11.3692H71.689V5.19184H76.2588C76.8932 5.17983 77.5224 5.30791 78.1016 5.56695C78.6076 5.80032 79.0347 6.17578 79.3311 6.64762C79.6456 7.18895 79.8004 7.80822 79.7777 8.43385C79.7999 9.00739 79.645 9.57387 79.3341 10.0563ZM80.5517 17.1149C80.5775 17.7845 80.4145 18.4478 80.0813 19.0292C79.7634 19.535 79.3052 19.9374 78.7625 20.1872C78.1411 20.4649 77.4662 20.6021 76.7857 20.5891H71.689V13.9533H76.7768C77.4554 13.9402 78.1296 14.0637 78.7595 14.3165C79.3167 14.5316 79.7905 14.9192 80.1118 15.4226C80.4332 15.926 80.5852 16.519 80.5457 17.1149H80.5517Z" fill="#020B40"/>
<path d="M105.297 12.2178C104.71 11.1316 103.837 10.2267 102.773 9.60097C101.645 8.97995 100.378 8.6543 99.0903 8.6543C97.8026 8.6543 96.5358 8.97995 95.4077 9.60097C94.3438 10.2273 93.4709 11.1321 92.8832 12.2178C92.2565 13.3961 91.9409 14.7149 91.9663 16.0493C91.9426 17.3759 92.2582 18.6865 92.8832 19.8569C93.4714 20.939 94.3431 21.8405 95.4048 22.4648C96.5376 23.086 97.8088 23.4117 99.1008 23.4117C100.393 23.4117 101.664 23.086 102.797 22.4648C103.857 21.8425 104.725 20.9402 105.306 19.8569C105.921 18.6834 106.228 17.3735 106.2 16.0493C106.229 14.7163 105.918 13.3978 105.297 12.2178ZM103.41 16.0493C103.428 16.8966 103.239 17.7355 102.859 18.4934C102.514 19.1726 101.989 19.7441 101.341 20.1457C100.662 20.5362 99.8918 20.7417 99.1082 20.7417C98.3246 20.7417 97.5548 20.5362 96.8754 20.1457C96.2258 19.742 95.6963 19.1714 95.3422 18.4934C94.9572 17.7372 94.7649 16.8976 94.7826 16.0493C94.7658 15.1968 94.9591 14.3533 95.3452 13.5932C95.6231 13.0826 96.0009 12.6331 96.4561 12.2714C96.9113 11.9098 97.4345 11.6434 97.9948 11.4882C98.555 11.3329 99.1408 11.2919 99.7172 11.3676C100.294 11.4434 100.849 11.6343 101.35 11.929C102 12.333 102.525 12.909 102.868 13.5932C103.243 14.3566 103.429 15.199 103.41 16.0493Z" fill="#020B40"/>
<path d="M112.915 11.9172C113.573 11.5159 114.332 11.3095 115.103 11.3218C115.661 11.3121 116.215 11.4234 116.727 11.6479C117.238 11.8725 117.695 12.2051 118.065 12.6228C118.297 12.8735 118.599 13.0479 118.932 13.1229C119.089 13.1597 119.253 13.1611 119.412 13.1271C119.57 13.0932 119.72 13.0247 119.849 12.9264C120.152 12.7182 120.371 12.4075 120.465 12.0512C120.5 11.8728 120.492 11.6885 120.44 11.5141C120.388 11.3398 120.294 11.1808 120.167 11.0509C119.543 10.2993 118.766 9.69017 117.887 9.26468C117.011 8.86056 116.056 8.65714 115.091 8.66927C113.826 8.64478 112.578 8.96703 111.483 9.60108C110.43 10.2319 109.571 11.139 108.997 12.2239C108.385 13.4015 108.078 14.7136 108.104 16.0404C108.083 17.3507 108.399 18.6444 109.021 19.7975C109.615 20.8852 110.49 21.794 111.554 22.4292C112.669 23.0868 113.943 23.4236 115.237 23.4027C116.094 23.4266 116.947 23.2811 117.748 22.9745C118.548 22.668 119.28 22.2065 119.902 21.6165C120.029 21.4948 120.126 21.3457 120.187 21.1805C120.247 21.0154 120.269 20.8387 120.25 20.6638C120.199 20.2973 120.007 19.9653 119.715 19.7379C119.595 19.6282 119.454 19.545 119.3 19.4937C119.146 19.4424 118.983 19.4242 118.821 19.4402C118.478 19.4809 118.156 19.6264 117.899 19.857C117.553 20.1478 117.156 20.371 116.729 20.515C116.242 20.6635 115.734 20.7348 115.225 20.7263C114.429 20.7429 113.645 20.5311 112.966 20.116C112.319 19.7074 111.793 19.1327 111.444 18.4519C111.067 17.7016 110.878 16.871 110.894 16.0315C110.874 15.1681 111.058 14.3122 111.432 13.5338C111.767 12.8679 112.28 12.3082 112.915 11.9172Z" fill="#020B40"/>
<path d="M88.8657 3.19383C88.5901 2.93685 88.2273 2.79395 87.8505 2.79395C87.4737 2.79395 87.1109 2.93685 86.8353 3.19383C86.7055 3.33233 86.6044 3.49522 86.538 3.67306C86.4716 3.85089 86.4411 4.04015 86.4483 4.22985V21.9731C86.4411 22.1628 86.4716 22.352 86.538 22.5299C86.6044 22.7077 86.7055 22.8706 86.8353 23.0091C87.1109 23.2661 87.4737 23.409 87.8505 23.409C88.2273 23.409 88.5901 23.2661 88.8657 23.0091C88.9955 22.8706 89.0966 22.7077 89.163 22.5299C89.2294 22.352 89.2599 22.1628 89.2527 21.9731V4.24176C89.262 4.05003 89.2326 3.85839 89.1661 3.67832C89.0996 3.49825 88.9974 3.33347 88.8657 3.19383Z" fill="#020B40"/>
<path d="M174.787 16.7456C174.911 16.6238 175.007 16.4779 175.072 16.3171C175.136 16.1563 175.167 15.984 175.162 15.8108C175.186 14.5383 174.927 13.2764 174.403 12.1163C173.918 11.0829 173.148 10.21 172.182 9.60066C171.137 8.96756 169.933 8.64728 168.711 8.67777C167.443 8.64839 166.191 8.96761 165.091 9.60066C164.043 10.2282 163.187 11.1313 162.617 12.2115C162.006 13.3938 161.699 14.7095 161.724 16.04C161.7 17.3708 162.026 18.6846 162.668 19.8506C163.284 20.9429 164.188 21.845 165.282 22.4585C166.237 22.9811 167.292 23.2951 168.377 23.3798C169.463 23.4645 170.554 23.3179 171.578 22.9498C172.367 22.6987 173.107 22.3119 173.763 21.8066C173.914 21.7012 174.036 21.5595 174.117 21.3945C174.198 21.2294 174.236 21.0466 174.228 20.8628C174.212 20.6748 174.159 20.4918 174.072 20.3246C173.984 20.1574 173.864 20.0094 173.719 19.8893C173.473 19.6736 173.152 19.5615 172.825 19.5768C172.493 19.5895 172.174 19.7061 171.912 19.9102C171.519 20.1931 171.086 20.4168 170.628 20.5741C170.134 20.7623 169.61 20.8631 169.08 20.8718C168.216 20.8877 167.364 20.6708 166.612 20.2436C165.907 19.8351 165.325 19.2437 164.927 18.5318C164.684 18.0976 164.512 17.6272 164.418 17.1386H173.826C174.004 17.1424 174.182 17.1096 174.347 17.042C174.513 16.9744 174.663 16.8735 174.787 16.7456ZM164.844 13.5601C165.165 12.8591 165.682 12.2657 166.333 11.8513C167.05 11.4191 167.877 11.2021 168.714 11.2261C169.441 11.2039 170.157 11.4022 170.768 11.7947C171.337 12.1854 171.787 12.7238 172.072 13.3517C172.273 13.7855 172.411 14.2456 172.483 14.7182H164.445C164.532 14.3179 164.666 13.9292 164.844 13.5601Z" fill="#020B40"/>
<path d="M133.667 20.9915L128.99 15.4452L133.072 10.5807C133.306 10.3045 133.424 9.94782 133.4 9.5864C133.385 9.40883 133.334 9.23614 133.25 9.07897C133.166 8.9218 133.051 8.78346 132.911 8.67245C132.784 8.54842 132.632 8.45293 132.465 8.39235C132.299 8.33177 132.121 8.3075 131.944 8.32116C131.765 8.33604 131.592 8.38858 131.436 8.47531C131.279 8.56204 131.143 8.68098 131.036 8.82428L126.01 14.8141V4.05802C126.019 3.86825 125.989 3.67873 125.924 3.5004C125.858 3.32207 125.758 3.15846 125.629 3.01903C125.354 2.76205 124.991 2.61914 124.614 2.61914C124.237 2.61914 123.875 2.76205 123.599 3.01903C123.469 3.15798 123.368 3.32137 123.301 3.49972C123.235 3.67808 123.205 3.86784 123.212 4.05802V21.8072C123.205 21.9969 123.235 22.1861 123.302 22.364C123.368 22.5418 123.469 22.7047 123.599 22.8432C123.875 23.1002 124.237 23.2431 124.614 23.2431C124.991 23.2431 125.354 23.1002 125.629 22.8432C125.759 22.7047 125.86 22.5418 125.927 22.364C125.993 22.1861 126.024 21.9969 126.016 21.8072V19.0088L127.183 17.6155L131.569 22.8521C131.683 22.9967 131.828 23.1151 131.992 23.1993C132.156 23.2835 132.337 23.3316 132.521 23.3404H132.59C132.937 23.3405 133.271 23.2086 133.525 22.9712C133.669 22.8515 133.788 22.7033 133.873 22.5359C133.958 22.3684 134.008 22.1852 134.019 21.9977C134.037 21.6294 133.911 21.2686 133.667 20.9915Z" fill="#020B40"/>
<path d="M158.286 3.27464C158.061 3.04446 157.761 2.90285 157.44 2.87572C157.083 2.81492 156.716 2.89263 156.413 3.09304L156.306 3.17342C156.239 3.2278 156.177 3.28862 156.121 3.35502L148.637 12.2802L141.162 3.34907C141.008 3.16525 140.809 3.02351 140.585 2.93709C140.362 2.85067 140.119 2.82238 139.882 2.85488C139.532 2.86826 139.201 3.01409 138.956 3.26273C138.822 3.40488 138.717 3.57237 138.649 3.75539C138.58 3.9384 138.549 4.13326 138.557 4.32852V21.9288C138.549 22.1246 138.58 22.3199 138.649 22.5035C138.717 22.687 138.822 22.855 138.956 22.9976C139.239 23.2602 139.611 23.4061 139.998 23.4061C140.384 23.4061 140.756 23.2602 141.04 22.9976C141.173 22.8542 141.276 22.686 141.344 22.5026C141.412 22.3192 141.443 22.1243 141.436 21.9288V8.11235L147.548 15.3764C147.765 15.6297 148.064 15.7984 148.393 15.8527H148.417H148.512H148.598H148.676H148.765H148.857H148.884C149.219 15.8017 149.524 15.6327 149.745 15.3764L155.815 8.15105V21.9288C155.805 22.1236 155.834 22.3183 155.9 22.5018C155.965 22.6853 156.067 22.8538 156.199 22.9976C156.482 23.2608 156.854 23.4072 157.241 23.4072C157.627 23.4072 158 23.2608 158.283 22.9976C158.416 22.8545 158.519 22.6863 158.587 22.5028C158.654 22.3193 158.685 22.1242 158.676 21.9288V4.34043C158.685 4.14578 158.655 3.9513 158.588 3.76831C158.521 3.58533 158.418 3.41751 158.286 3.27464Z" fill="#020B40"/>
<path d="M191.289 4.17915V4.10472C191.296 3.91502 191.266 3.72577 191.199 3.54793C191.133 3.3701 191.032 3.20721 190.902 3.06871C190.77 2.93553 190.611 2.83111 190.436 2.76196C190.262 2.69281 190.075 2.66042 189.887 2.66681C189.682 2.66576 189.48 2.70627 189.291 2.78589C189.11 2.85561 188.945 2.96203 188.806 3.09848C188.669 3.24186 188.561 3.41135 188.49 3.59696C188.419 3.78256 188.386 3.98051 188.392 4.17915V10.7435C187.858 10.1564 187.221 9.67298 186.511 9.31754C185.633 8.87927 184.664 8.65485 183.683 8.66259C182.479 8.64909 181.298 8.98857 180.286 9.63906C179.276 10.295 178.456 11.2058 177.91 12.2797C177.321 13.4423 177.024 14.7307 177.044 16.0338C177.026 17.3507 177.351 18.6497 177.988 19.8027C178.593 20.8932 179.475 21.8049 180.545 22.4463C181.648 23.084 182.899 23.4197 184.172 23.4197C185.446 23.4197 186.697 23.084 187.8 22.4463C188.039 22.3006 188.27 22.1416 188.491 21.97C188.499 22.3141 188.635 22.6429 188.872 22.8929C189.147 23.1499 189.51 23.2928 189.887 23.2928C190.264 23.2928 190.626 23.1499 190.902 22.8929C191.032 22.7547 191.134 22.5918 191.2 22.4139C191.267 22.236 191.297 22.0466 191.289 21.8569V4.17915ZM186.389 20.1332C185.723 20.5325 184.961 20.7434 184.184 20.7434C183.408 20.7434 182.646 20.5325 181.98 20.1332C181.318 19.7186 180.78 19.1335 180.423 18.4392C180.034 17.6946 179.836 16.8648 179.848 16.0248C179.833 15.1835 180.031 14.352 180.423 13.6075C180.788 12.9256 181.324 12.3509 181.98 11.9403C182.646 11.541 183.408 11.3301 184.184 11.3301C184.961 11.3301 185.723 11.541 186.389 11.9403C187.038 12.3511 187.567 12.9263 187.922 13.6075C188.307 14.3541 188.501 15.1848 188.485 16.0248C188.497 16.8644 188.304 17.6942 187.922 18.4422C187.573 19.1336 187.043 19.7178 186.389 20.1332Z" fill="#020B40"/>
<path d="M19.8048 25.9238C19.2694 25.9229 18.7454 25.7694 18.2942 25.4814C17.8429 25.1933 17.4831 24.7827 17.2569 24.2975C17.0307 23.8123 16.9475 23.2726 17.017 22.7418C17.0865 22.211 17.3059 21.711 17.6494 21.3004L34.6186 1.08028C34.8561 0.797228 35.147 0.56373 35.4747 0.393115C35.8025 0.2225 36.1606 0.11811 36.5287 0.0859039C36.8968 0.053698 37.2676 0.0943075 37.62 0.205414C37.9724 0.31652 38.2995 0.495947 38.5825 0.73345C38.8656 0.970954 39.099 1.26188 39.2697 1.58962C39.4403 1.91737 39.5447 2.27551 39.5769 2.64359C39.6091 3.01168 39.5685 3.3825 39.4574 3.7349C39.3463 4.08729 39.1668 4.41434 38.9293 4.69739L21.9601 24.9175C21.6964 25.2328 21.3667 25.4863 20.9943 25.6602C20.6219 25.8341 20.2158 25.9241 19.8048 25.9238Z" fill="url(#paint0_linear)"/>
<path d="M36.7715 25.9239C36.2362 25.923 35.7122 25.7696 35.261 25.4816C34.8097 25.1935 34.4499 24.7828 34.2237 24.2976C33.9975 23.8124 33.9143 23.2728 33.9838 22.742C34.0533 22.2112 34.2727 21.7112 34.6162 21.3006L51.5854 1.08045C52.065 0.50841 52.7523 0.150344 53.4959 0.0850226C54.2396 0.0197009 54.9788 0.252473 55.5508 0.732133C56.1228 1.21179 56.4809 1.89905 56.5462 2.64271C56.6115 3.38637 56.3788 4.12553 55.8991 4.69757L38.9299 24.9177C38.6659 25.2334 38.3357 25.4871 37.9627 25.661C37.5897 25.8349 37.1831 25.9247 36.7715 25.9239Z" fill="url(#paint1_linear)"/>
<path style="mix-blend-mode:multiply" d="M38.9465 1.1013L38.9287 1.08046L38.8364 0.967334L38.756 0.883977L38.7262 0.854206L38.6637 0.797642L38.6131 0.752986L38.5625 0.711308L38.488 0.669629L38.4434 0.636881L38.3749 0.586272L38.3273 0.553524L38.2588 0.511845L38.2052 0.476121L38.1457 0.443373L38.0772 0.407648L38.0296 0.371924L37.9492 0.333222H37.9105L37.8063 0.276658H37.7765L37.6872 0.226048H37.6664L37.5533 0.190324H37.5384L37.4223 0.160553L37.3062 0.136737H37.2853L37.1781 0.118875H37.1484H37.0472H37.0055L36.9132 0.0742188H36.6542H36.5678H36.5232H36.425H36.3952L36.285 0.0920811H36.2642L36.1481 0.115897L36.032 0.145668L35.9218 0.181393H35.901L35.7968 0.220094H35.77L35.6777 0.258796H35.639L35.5586 0.297498L35.508 0.324291L35.4425 0.360016L35.383 0.392763L35.3264 0.428488L35.2609 0.470167L35.2133 0.502914L35.1418 0.553524L35.0972 0.586272L35.0317 0.639858L34.9841 0.681537L34.9305 0.726193L34.868 0.782757L34.8382 0.812527L34.7578 0.895885C34.728 0.931609 34.6953 0.964357 34.6685 1.00008L34.6506 1.02092C34.2308 1.52608 34.001 2.16222 34.001 2.81906C34.001 3.4759 34.2308 4.11204 34.6506 4.6172L36.809 7.18639L38.9644 4.6172C39.3612 4.11626 39.5756 3.49515 39.5723 2.85612C39.5691 2.21708 39.3484 1.59819 38.9465 1.1013Z" fill="url(#paint2_linear)"/>
<path d="M2.81159 25.9247C2.27625 25.9239 1.75226 25.7704 1.30101 25.4824C0.84976 25.1943 0.489955 24.7836 0.263755 24.2984C0.0375561 23.8132 -0.0456663 23.2736 0.0238405 22.7428C0.0933474 22.212 0.312704 21.712 0.656205 21.3014L17.6254 1.08125C17.8629 0.798204 18.1538 0.564706 18.4816 0.394091C18.8093 0.223477 19.1675 0.119086 19.5355 0.0868804C19.9036 0.0546746 20.2744 0.0952841 20.6268 0.20639C20.9792 0.317496 21.3063 0.496924 21.5893 0.734427C21.8724 0.97193 22.1059 1.26286 22.2765 1.5906C22.4471 1.91834 22.5515 2.27648 22.5837 2.64457C22.6159 3.01265 22.5753 3.38348 22.4642 3.73587C22.3531 4.08826 22.1737 4.41532 21.9362 4.69837L4.96698 24.9185C4.70327 25.2338 4.37356 25.4873 4.00112 25.6612C3.62869 25.8351 3.22261 25.925 2.81159 25.9247Z" fill="url(#paint3_linear)"/>
<path d="M41.5823 12.9979L36.7744 7.26704L38.9298 4.69784C39.3521 4.19477 39.5851 3.55977 39.5884 2.90293C39.5917 2.24609 39.365 1.60881 38.9477 1.10156L45.2501 8.62159L41.5823 12.9979ZM53.7347 25.9242C54.27 25.9233 54.794 25.7699 55.2453 25.4818C55.6965 25.1938 56.0563 24.7831 56.2825 24.2979C56.5087 23.8127 56.5919 23.2731 56.5224 22.7423C56.4529 22.2115 56.2336 21.7115 55.8901 21.3009L52.785 17.5944C52.3053 17.0224 51.6181 16.6643 50.8744 16.599C50.1308 16.5337 49.3916 16.7665 48.8196 17.2461C48.2475 17.7258 47.8895 18.413 47.8241 19.1567C47.7588 19.9004 47.9916 20.6395 48.4713 21.2115L51.5852 24.918C51.8485 25.2337 52.1782 25.4876 52.5507 25.6615C52.9232 25.8354 53.3295 25.9251 53.7406 25.9242H53.7347Z" fill="url(#paint4_linear)"/>
<defs>
<linearGradient id="paint0_linear" x1="16.9914" y1="12.9974" x2="39.5873" y2="12.9974" gradientUnits="userSpaceOnUse">
<stop stop-color="#5E83F2"/>
<stop offset="1" stop-color="#1C31A6"/>
</linearGradient>
<linearGradient id="paint1_linear" x1="2611.61" y1="1122.21" x2="4326.72" y2="1122.21" gradientUnits="userSpaceOnUse">
<stop stop-color="#5E83F2"/>
<stop offset="1" stop-color="#1C31A6"/>
</linearGradient>
<linearGradient id="paint2_linear" x1="56.5528" y1="3.6705" x2="33.957" y2="3.6705" gradientUnits="userSpaceOnUse">
<stop stop-color="#F21D81"/>
<stop offset="1" stop-color="#F54A9A"/>
</linearGradient>
<linearGradient id="paint3_linear" x1="0" y1="1122.16" x2="1714.92" y2="1122.16" gradientUnits="userSpaceOnUse">
<stop stop-color="#5E83F2"/>
<stop offset="1" stop-color="#1C31A6"/>
</linearGradient>
<linearGradient id="paint4_linear" x1="2479.19" y1="1121.6" x2="3979.68" y2="1121.6" gradientUnits="userSpaceOnUse">
<stop stop-color="#F21D81"/>
<stop offset="1" stop-color="#F54A9A"/>
</linearGradient>
</defs>
</svg>
